<svg xmlns="http://www.w3.org/2000/svg" xmlns:xlink="http://www.w3.org/1999/xlink" width="80" height="106" viewBox="0 0 66 71">
          <defs><linearGradient x1="47.061%" y1="57.165%" x2="47.042%" y2="97.029%" id="b4"><stop stop-color="#FFF" stop-opacity="0" offset="0%"></stop><stop stop-color="#868686" stop-opacity="0" offset="24.733%"></stop><stop offset="100%"></stop></linearGradient><path d="M687.747 56.43c-1.534 3.144-1.593 6.193-.186 8.886-.762.21-1.744.503-2.861.884a5.666 5.666 0 0 0 .013-.321v-.027l-.001-.158v-.002a4.7 4.7 0 0 0-.007-.163l-.002-.028a4.629 4.629 0 0 0-.013-.16l-.003-.03a4.523 4.523 0 0 0-.02-.167l-.001-.008a4.73 4.73 0 0 0-.027-.166l-.005-.027a4.564 4.564 0 0 0-.085-.372l-.005-.017a4.456 4.456 0 0 0-.05-.168l-.007-.024a4.418 4.418 0 0 0-.061-.173l-.013-.033a4.51 4.51 0 0 0-.07-.175l-.01-.023a4.576 4.576 0 0 0-.079-.17l-.009-.02a4.658 4.658 0 0 0-.092-.176l-.019-.034a4.66 4.66 0 0 0-.102-.174l-.017-.029a4.959 4.959 0 0 0-.113-.173l-.008-.011a5.007 5.007 0 0 0-.128-.178l-.026-.033a5.257 5.257 0 0 0-.138-.172l-.026-.032a4.849 4.849 0 0 0-3.315-1.713c-.807-.06-1.5.073-2.083.3-.027.01-.053.022-.08.033l-.064.026a5.07 5.07 0 0 0-1.877 1.42 5.498 5.498 0 0 0-.221.283l-.012.016c-1.394 1.858-3.355 5.948-4.09 7.525-1.094-.018-3.336-.047-5.586.83-1.858.725-3.345 1.899-4.447 3.505a11.179 11.179 0 0 0-1.116 2.084c-.239-.02-.48-.035-.726-.046-2.384-.113-5.074.137-8.045.744a46.86 46.86 0 0 0-1.049.226l-.145.032c-.756.175-1.53.371-2.32.59l-.085.023a63.809 63.809 0 0 0-1.495.435c-.832.253-1.693.533-2.569.836a9.349 9.349 0 0 0-2.344-4.642c-1.823-1.983-4.489-3.306-7.95-3.951l16.338-5.516a8.09 8.09 0 0 0 1.148 1.853c.605.725 1.422 1.41 2.509 1.829.703.27 1.454.405 2.25.405 1.279 0 2.674-.349 4.173-1.044.347-.16.698-.34 1.055-.537a1.562 1.562 0 0 0 .437-.356l.028-.036a1.555 1.555 0 0 0 .33-1.148l-.193-1.69a1.55 1.55 0 0 0 .27-.063l.01-.004 1.778-.6a1.589 1.589 0 0 0 .333-.157l.94 1.472a1.555 1.555 0 0 0 1.549.7 14.034 14.034 0 0 0 3.144-.88c1.384-.578 2.467-1.334 3.234-2.252l.001-.002c.06-.07.116-.142.172-.215l.027-.036c.05-.065.096-.13.142-.197l.038-.055c.055-.082.108-.165.158-.25l.003-.003c.26-.437.457-.897.59-1.378 0-.003 0-.007.002-.01a5.59 5.59 0 0 0 .069-.282c.212-.98.166-2.044-.14-3.186l.236-.08 16.079-5.428c-1.074 1.22-2.14 2.668-2.92 4.265m-9.34 19.17l-.061.122c-1.877 3.805-3.393 5.843-6.229 8.373l-1.688 1.391a1.155 1.155 0 0 0-.475.925c-.022 2.987-.067 7.272-.106 8.289-.38.313-2.113 1.352-8.382 1.352-4.133 0-6.232-.472-7.264-.867-.23-.088-.732-.3-.978-.555v-8.307a1.47 1.47 0 0 0-.588-1.17c-.376-.28-2.129-1.661-3.754-4.28l.074-.022.2-.055a52.642 52.642 0 0 1 1.693-.434l.204-.049.262-.06.197-.045.27-.06.185-.04.297-.062.152-.032.436-.087.148-.027.29-.055.183-.032.251-.044.194-.032.235-.039.196-.03a33.274 33.274 0 0 1 1.474-.195l.188-.02.22-.022.182-.018.23-.02.166-.013.27-.02.121-.008.38-.021.143-.007.238-.01.162-.004.214-.006.167-.002.205-.002h.166a21.574 21.574 0 0 1 1.276.04l.15.01.204.016.138.012c.075.006.149.014.222.021l.115.012c.112.012.222.024.332.038l.943.12.298-.903c.824-2.492 2.35-4.187 4.534-5.04.134-.052.269-.1.403-.144 1.24-.414 2.467-.513 3.405-.53.136-.003.267-.004.39-.004.197 0 .376.003.533.006.49.008.914.014 1.255-.14.148-.066.28-.164.395-.304.044-.054.086-.112.125-.18l.03-.05.023-.053.003-.006c.071-.156 1.305-2.86 2.567-5.174a45.864 45.864 0 0 1 .599-1.064 24.407 24.407 0 0 1 .334-.553c.219-.352.429-.667.624-.927l.02-.027c.032-.043.075-.102.138-.177.398-.479 1.096-1.033 2.159-.954a2.226 2.226 0 0 1 .36.057 2.584 2.584 0 0 1 1.275.745c.39.422.582.853.65 1.285.06.435.012.977-.212 1.683l-.018.057-.075.232-.01.027c-.023.07-.046.14-.071.21v.001c-.904 2.612-2.806 6.436-3.582 7.959m-29.712-30.96a2.679 2.679 0 0 1 1.954.745c.559.53.873 1.245.886 2.01l.09 7.71.03 3.676c.001.04.003.08.008.118v.004c.022.193.091.37.196.522l.006.009.06.079.027.029c.016.017.03.035.047.051.018.018.037.034.055.05.01.007.017.016.026.023.028.023.057.044.086.064l.002.001c.152.103.33.17.521.189h.004c.026.003.053.003.08.004l.037.002h.01a1.155 1.155 0 0 0 1.145-1.163l-.018-2.495-.014-1.185-.142-16.648a2.74 2.74 0 0 1 2.727-2.748c.733-.004 1.42.28 1.938.795.52.515.806 1.201.809 1.938l.044 4.974.057 13 .002.075.002.045c.001.021.004.041.006.061l.005.053.005.025c.052.35.206.584.377.738a1.196 1.196 0 0 0 .28.188l.02.009.05.022.026.01.045.016.029.008.044.013.03.007.043.01.032.004.043.007.032.003.042.003.034.001.035.002h.006l.04-.002c.012 0 .024 0 .036-.002.014 0 .027-.002.04-.004.013 0 .025-.002.037-.003l.04-.007.035-.006.04-.01.035-.008.041-.013.033-.01.043-.016c.01-.004.02-.007.029-.012l.046-.02.024-.012c.024-.012.046-.025.069-.038.202-.12.524-.397.581-.954.006-.058.01-.117.01-.182v-.025a.9.9 0 0 0 0-.032l-.115-12.956-.045-10.329a2.717 2.717 0 0 1 .812-1.954 2.72 2.72 0 0 1 1.965-.792c1.483.02 2.693 1.273 2.698 2.795l.108 22.915v.151c0 .025 0 .05.002.075.061.934.708 1.33 1.284 1.301.2-.01 1.192-.129 1.156-1.528l-.1-18.727a2.623 2.623 0 0 1 .792-1.883 2.864 2.864 0 0 1 2.047-.819c1.497.02 2.767 1.307 2.771 2.805v17.588l-2.192.74a1.55 1.55 0 0 0-1.004 1.073l-.004.013c-.076.291-.064.598.035.887l.005.017c.227.641.348 1.23.363 1.77.005.155 0 .306-.012.453a3.258 3.258 0 0 1-.45 1.41c-.284.475-.68.872-1.131 1.205a5.558 5.558 0 0 1-.287.2c-1.063.691-2.34 1.066-3.158 1.25a13.62 13.62 0 0 1-.236.051l-1.334-2.09a1.554 1.554 0 0 0-2.808.41l-.897.303a1.552 1.552 0 0 0-1.389-.154 1.55 1.55 0 0 0-1.006 1.635l.27 2.36a13.793 13.793 0 0 1-.732.348l-.052.023c-1.704.735-3.15.882-4.308.436a3.674 3.674 0 0 1-1.163-.727 4.726 4.726 0 0 1-.793-.953 6.174 6.174 0 0 1-.624-1.296 1.546 1.546 0 0 0-.054-.134l-.02-.04a1.447 1.447 0 0 0-.125-.212l-.024-.035a1.525 1.525 0 0 0-.087-.107l-.004-.004a1.586 1.586 0 0 0-.093-.094l-.032-.028a1.558 1.558 0 0 0-.191-.144l-.034-.022a1.56 1.56 0 0 0-.12-.066l-.01-.005a1.574 1.574 0 0 0-.114-.049l-.041-.015a1.572 1.572 0 0 0-.231-.063l-.04-.008a1.568 1.568 0 0 0-.136-.017h-.018a1.498 1.498 0 0 0-.1-.004h-.02c-.016 0-.032.002-.047.003a1.581 1.581 0 0 0-.243.03c-.015.003-.03.005-.044.009a1.549 1.549 0 0 0-.14.039l-4.06 1.37c-.01-.391-.044-.844-.083-1.332-.018-.222-.04-.5-.04-.579l-.02-15.357v-.018c-.025-1.502 1.17-2.768 2.665-2.823m46.088 5.008a1.545 1.545 0 0 0-1.84-.689l-15.526 5.242V37.391c-.008-2.78-2.273-5.073-5.048-5.111a5.212 5.212 0 0 0-3.011.914v-.1c-.01-2.772-2.242-5.057-4.977-5.094a5.015 5.015 0 0 0-3.62 1.46 5.01 5.01 0 0 0-1.497 3.604l.005 1.123a5.032 5.032 0 0 0-2.759-.807 5.054 5.054 0 0 0-5.028 5.07l.04 4.694a4.95 4.95 0 0 0-2.911-.81c-2.74.1-4.931 2.413-4.89 5.16l.019 15.347c0 .163.017.385.048.764.04.483.104 1.287.071 1.61l-.046.332-13.755 4.644a1.54 1.54 0 0 0-1.044 1.68 1.54 1.54 0 0 0 1.45 1.347c4.51.268 7.788 1.482 9.743 3.608 1.482 1.61 1.804 3.325 1.864 4.2.032.493.287.93.7 1.2a1.544 1.544 0 0 0 1.377.163 75.045 75.045 0 0 1 2.452-.832c1.618 2.79 3.435 4.47 4.315 5.183v8.196c0 .226.06.45.17.648l.007.011c1.005 1.862 4.398 2.767 10.374 2.767 5.94 0 9.573-.916 10.505-2.653l.003-.007c.086-.16.122-.311.137-.422.044-.233.051-.605.067-1.41.013-.637.026-1.527.04-2.645.02-1.678.034-3.401.04-4.254l1.345-1.107.034-.03c3.063-2.729 4.773-5.022 6.78-9.088l.048-.096c.929-1.823 2.567-5.152 3.523-7.741a48.142 48.142 0 0 1 5.11-1.611 1.555 1.555 0 0 0 .912-2.373c-1.49-2.24-1.551-4.687-.187-7.482 1.19-2.437 3.19-4.528 4.66-5.853l.002-.002c.552-.499.675-1.296.298-1.939" id="a4"></path></defs><g transform="translate(-629 -28)" fill="none" fill-rule="evenodd"><use fill="#4D4D4D" xlink:href="#a4"></use><use fill="url(#b4)" xlink:href="#a4"></use></g></svg>



