<svg xmlns="http://www.w3.org/2000/svg" xmlns:xlink="http://www.w3.org/1999/xlink" style="color: red;" width="80" height="106" viewBox="0 0 53 71">
          <defs>
            <linearGradient x1="47.061%" y1="57.165%" x2="47.042%" y2="97.029%" id="linearGradient-1"><stop stop-color="#FFF" stop-opacity="0" offset="0%"></stop><stop stop-color="#868686" stop-opacity="0" offset="24.733%"></stop><stop offset="100%"></stop></linearGradient><path d="M334.495433,69.3503259 C334.755168,68.6975843 334.984196,68.074235 335.160163,67.5160129 L335.177102,67.4626427 C335.424771,66.6825859 336.178452,64.3086918 334.22688,62.2007209 C333.524016,61.4416255 332.581219,60.9226189 331.581957,60.7300992 C331.563471,60.6522096 331.54104,60.574552 331.513814,60.4973585 C331.098918,59.3218203 329.809523,58.705355 328.633907,59.1204055 C327.458369,59.5353013 326.841827,60.8246188 327.2568,62.0002343 C327.26438,62.0218144 327.272888,62.0428532 327.281087,62.0640466 C327.079286,62.2645331 326.88839,62.4848982 326.710257,62.7252965 L326.695174,62.7455617 C325.607426,64.1966142 324.168595,67.01557 323.229278,68.9549991 C320.780666,68.9791318 318.35402,69.4108895 315.814678,70.2758746 C309.843087,72.3098233 306.42182,75.3910668 303.672787,77.8669059 C301.989922,79.3825442 300.660693,80.5797399 299.251873,81.0596082 C299.092535,81.1138293 298.925077,81.1591553 298.754137,81.1942714 C296.521558,81.6524049 293.535375,80.3787118 292.233064,78.4129069 C291.740665,77.6694359 290.812796,75.6974431 290.45885,73.0215816 C290.007678,69.6101385 290.624762,66.2799111 292.293086,63.1231757 C294.185333,59.5428815 298.001616,55.7535924 298.676789,55.2116908 C301.460551,52.9774876 305.052834,51.0088981 308.79177,49.6688403 C312.417545,48.3693129 315.962336,47.7274774 318.773557,47.8623727 C318.888651,47.8678644 319.024707,47.8671683 319.213204,47.8661627 C320.619085,47.85866 324.896442,47.8363063 329.70634,50.7261904 C333.227618,52.8418188 335.322672,55.4639233 336.460155,57.2910429 C337.922809,59.6404949 338.388136,61.5624434 338.432457,62.3277266 C338.571993,64.7349578 337.97966,67.8453616 334.495433,69.3503259 M329.192748,75.2853318 C329.159102,75.3515419 329.137676,75.3938514 329.129942,75.4093984 C327.242336,79.2350411 325.719504,81.2827578 322.870769,83.8234146 L321.121153,85.2647986 C320.774787,85.5501362 320.637262,85.994115 320.725284,86.4045246 C320.710124,88.6041532 320.659693,93.8069036 320.616069,94.9499555 C320.234665,95.2646854 318.493479,96.308809 312.192925,96.308809 C308.040718,96.308809 305.932051,95.8352832 304.894193,95.4378681 C304.663927,95.3497684 304.159385,95.1369835 303.911175,94.8807289 L303.911175,86.5330773 C303.911175,86.0716179 303.690113,85.6318159 303.320002,85.356611 C302.934035,85.0696491 301.890762,84.1776695 300.823124,82.9182858 C302.335978,82.1933783 303.692124,80.9723594 305.225707,79.5911523 C307.21201,77.8022428 309.571981,75.6784928 313.051413,73.9372298 C311.739587,75.5116527 310.871586,77.5780103 310.460325,80.1198274 C310.357994,80.7523811 310.787895,81.3481944 311.420371,81.4505261 C312.052384,81.5528578 312.648661,81.1230337 312.750993,80.4904027 C313.306972,77.053512 314.822378,74.7175959 317.255057,73.5473948 C319.27516,72.5757465 321.418556,72.609625 322.569653,72.6278018 C323.35582,72.6401775 323.976539,72.6501555 324.353535,72.0019774 L324.383082,71.9511596 L324.407292,71.897712 C324.409535,71.8929164 324.629281,71.4086392 324.974641,70.6814887 C326.43513,67.6069744 327.738989,65.2217875 328.551841,64.1375202 L328.574813,64.1067356 C329.183002,63.2855296 329.959269,62.9041255 330.882265,62.9725014 C331.485272,63.0173633 332.099108,63.3180932 332.524136,63.7771549 C333.432823,64.7587037 333.273253,65.790993 332.965485,66.7604755 L332.947153,66.8181773 C332.130356,69.4087238 330.049535,73.602544 329.192748,75.2853318 M299.36016,44.9548532 C300.08762,44.9281681 300.785688,45.1945554 301.323877,45.7048989 C301.884961,46.2368999 302.201005,46.9559289 302.213845,47.7297978 C302.214155,47.7448807 302.214696,47.7599636 302.215547,47.7751239 L302.336288,49.939327 C302.337989,49.9694928 302.341857,49.9988851 302.345724,50.0283548 C300.503676,51.0296274 298.765275,52.1653313 297.224344,53.4020519 C297.129515,53.4780852 296.995006,53.5958865 296.828166,53.7501962 L296.711989,48.2134562 C296.684995,46.5892984 297.971992,45.005671 299.36016,44.9548532 M307.220982,36.1134881 C307.224385,36.1134881 307.227711,36.1134107 307.231115,36.1134107 C307.962055,36.1134107 308.649913,36.3968919 309.16892,36.9121084 C309.690324,37.4298 309.978987,38.1195141 309.981617,38.8542448 C309.981617,38.8600459 309.981695,38.8659243 309.981772,38.8717255 L310.04659,42.3519311 L310.078148,46.8119066 C308.258067,47.3526479 306.419964,48.049478 304.639176,48.8751702 L304.480148,38.8677033 C304.478137,37.3538441 305.706349,36.1189798 307.220982,36.1134881 M313.117082,31.1160972 C313.645448,30.5931459 314.347228,30.3106702 315.090699,30.3207255 C316.581276,30.3409134 317.797964,31.5996009 317.802991,33.1327199 L317.906793,45.5250643 C316.203276,45.5352743 314.350167,45.7704902 312.43897,46.1970656 L312.366882,42.3218426 L312.30129,33.0802004 C312.298892,32.3367294 312.588562,31.6392032 313.117082,31.1160972 M321.06028,35.8312444 C321.60017,35.2973097 322.34921,34.9978948 323.116582,35.0078727 C324.621933,35.0287567 325.897405,36.3212454 325.901736,37.8266737 L325.901736,46.4964805 C323.603412,45.7897499 321.654237,45.6054291 320.358809,45.5594843 L320.264212,37.7189276 C320.263516,37.0100312 320.546146,36.3397316 321.06028,35.8312444 M340.749036,62.1933728 C340.674782,60.9120222 340.026604,58.629167 338.430136,56.0647642 C337.157758,54.0209923 334.818903,51.0907325 330.90137,48.7371037 C329.986573,48.1874672 329.089179,47.7324277 328.222183,47.3553551 L328.222183,37.8234251 C328.214139,35.0303037 325.938322,32.726487 323.148836,32.6876582 C322.071143,32.6728847 321.007219,33.0002224 320.12746,33.6041573 L320.123361,33.1191839 C320.114311,30.333952 317.870749,28.0376382 315.122025,28.0005111 C313.750641,27.9813287 312.458849,28.502733 311.484725,29.4668785 C310.510524,30.4311787 309.976358,31.7170928 309.980921,33.0921894 L309.991672,34.6083691 C309.176886,34.077451 308.225813,33.7930416 307.231424,33.7930416 L307.212551,33.7930416 C304.416413,33.8031742 302.149646,36.0861842 302.159702,38.8824769 C302.159779,38.8871951 302.159779,38.8919907 302.159856,38.8967089 L302.232564,43.4714692 C301.360927,42.8900426 300.337919,42.5967382 299.275309,42.6359537 C296.625669,42.7329484 294.343742,45.3572187 294.392007,48.2570806 L294.556449,56.0957035 C293.084745,57.7435299 291.363438,59.9160866 290.241502,62.0389858 C288.370371,65.5794456 287.650104,69.4824366 288.158437,73.3258695 C288.541156,76.2196983 289.55055,78.5651282 290.298662,79.6943348 C291.862643,82.0553118 294.946362,83.6084639 297.787439,83.6084639 C297.987771,83.6084639 298.18671,83.600265 298.383948,83.5846407 C299.547343,85.1135055 300.828848,86.3208338 301.590728,86.9474317 L301.590728,95.1870278 C301.590728,95.4148956 301.650364,95.6410618 301.761977,95.8389185 L301.768474,95.8508302 C302.780421,97.7204139 306.190317,98.6292554 312.192925,98.6292554 C318.162893,98.6292554 321.812723,97.7084249 322.74941,95.9632945 C322.831244,95.8117693 322.869068,95.6687525 322.887012,95.558918 C322.936206,95.3164314 322.943863,94.8992151 322.962582,93.882086 C322.97635,93.138847 322.990504,92.1109666 323.004736,90.8273729 C323.024073,89.0911375 323.038383,87.3500292 323.043643,86.6875417 L324.36359,85.6001032 L324.3977,85.5708655 C327.474148,82.8299542 329.193367,80.5249 331.210531,76.4368147 C331.217647,76.4225826 331.234741,76.3890909 331.260653,76.3381184 C331.721107,75.433763 332.525296,73.8229091 333.312856,72.0977345 C333.788934,72.029436 334.241189,71.9207618 334.680372,71.7673029 C337.080023,70.9286162 338.805971,69.4578399 339.810261,67.3957364 C340.726373,65.5147825 340.826461,63.528403 340.749036,62.1933728 M308.670263,61.3917668 L309.702553,64.0292636 C309.780442,64.2281259 309.682287,64.4524357 309.483425,64.5303254 L304.738963,66.3873013 L306.586116,71.0974983 C306.595784,71.1221724 306.602668,71.1472332 306.607464,71.1723714 C306.630204,71.256913 306.625563,71.3467143 306.590138,71.4276205 C306.549066,71.5215986 306.472336,71.5953888 306.376811,71.632748 L306.348347,71.6438861 C306.34796,71.6441181 306.347496,71.6443502 306.347032,71.6445049 L303.773657,72.6517334 C303.773193,72.6518881 303.772729,72.6519654 303.772342,72.6521974 L303.739315,72.6651146 C303.692983,72.6831367 303.645336,72.6917997 303.598463,72.6917997 C303.443922,72.6917997 303.297888,72.5985178 303.238175,72.4459098 L301.381277,67.7016022 L296.636892,69.5585782 C296.591489,69.5763683 296.543687,69.585186 296.495964,69.585186 C296.443057,69.585186 296.390229,69.5743572 296.340958,69.5527771 C296.332836,69.5492191 296.325797,69.5440367 296.317985,69.5399373 C296.224239,69.4956168 296.14635,69.4171083 296.10551,69.3128429 L295.093486,66.7297219 C295.008325,66.5122961 295.115917,66.2670249 295.333575,66.1824833 L300.066976,64.3439162 L298.21,59.599454 C298.167845,59.4917079 298.178674,59.3770778 298.227945,59.2817075 C298.271801,59.1862598 298.350851,59.1069005 298.456277,59.0653645 L301.036613,58.0486222 C301.254194,57.9629204 301.500006,58.0705118 301.584703,58.2885564 L303.424739,63.0295379 L308.169124,61.1726393 C308.215456,61.1544625 308.263102,61.1458768 308.310053,61.1458768 C308.464594,61.1458768 308.61055,61.2391588 308.670263,61.3917668 Z M320.923536,54.966845 C321.338664,56.1423832 320.722121,57.4317779 319.546505,57.8468285 C318.371045,58.2617243 317.081572,57.645259 316.666522,56.4697208 C316.251626,55.2940279 316.868091,54.0047879 318.043707,53.5898921 C319.219322,53.1748415 320.508717,53.7913842 320.923536,54.966845 Z M326.184576,51.1878045 C327.360114,50.772754 328.649586,51.3892966 329.064404,52.5648348 C329.479532,53.740373 328.862912,55.0297678 327.687451,55.4447409 C326.511836,55.8597141 325.222441,55.2431715 324.807391,54.0676333 C324.392495,52.8920178 325.00896,51.6027004 326.184576,51.1878045 Z M320.301579,61.4529106 C321.477194,61.0378601 322.766589,61.6544027 323.181407,62.8298635 C323.596535,64.0054017 322.979915,65.2948738 321.804454,65.7099243 C320.628916,66.1248202 319.339444,65.5082775 318.924394,64.3327394 C318.509498,63.1571238 319.12604,61.8678838 320.301579,61.4529106 Z" id="path-2"></path></defs><g transform="translate(-288 -28)" fill="none" fill-rule="evenodd"><use fill="#4D4D4D" xlink:href="#path-2"></use><use fill="url(#linearGradient-1)" xlink:href="#path-2"></use></g></svg>