<svg xmlns="http://www.w3.org/2000/svg" xmlns:xlink="http://www.w3.org/1999/xlink" width="80pt" height="80pt" viewBox="0 0 80 80" version="1.1">
<g id="surface1">
<path style=" stroke:none;fill-rule:nonzero;fill:rgb(0%,0%,0%);fill-opacity:1;" d="M 9.300781 41.136719 C 9.230469 41.136719 9.15625 41.128906 9.085938 41.113281 C 8.792969 41.058594 8.53125 40.886719 8.359375 40.636719 L 0.195312 28.613281 C -0.152344 28.09375 -0.0234375 27.390625 0.496094 27.039062 C 1.015625 26.691406 1.722656 26.820312 2.074219 27.339844 L 9.597656 38.425781 L 20.683594 30.894531 C 21.203125 30.550781 21.90625 30.679688 22.261719 31.199219 C 22.609375 31.71875 22.480469 32.421875 21.960938 32.773438 L 9.933594 40.941406 C 9.746094 41.070312 9.523438 41.136719 9.300781 41.136719 Z M 9.300781 41.136719 "/>
<path style=" stroke:none;fill-rule:nonzero;fill:rgb(0%,0%,0%);fill-opacity:1;" d="M 44.082031 75.917969 C 32.128906 75.917969 20.996094 69.996094 14.300781 60.082031 C 13.949219 59.5625 14.085938 58.855469 14.605469 58.507812 C 15.121094 58.15625 15.828125 58.292969 16.179688 58.8125 C 22.453125 68.101562 32.882812 73.648438 44.082031 73.648438 C 62.636719 73.648438 77.730469 58.554688 77.730469 40 C 77.730469 21.445312 62.636719 6.351562 44.082031 6.351562 C 25.527344 6.351562 10.433594 21.445312 10.433594 40 C 10.433594 40.625 9.925781 41.132812 9.300781 41.132812 C 8.671875 41.132812 8.164062 40.625 8.164062 40 C 8.164062 20.195312 24.277344 4.082031 44.082031 4.082031 C 63.886719 4.082031 80 20.195312 80 40 C 80 59.804688 63.886719 75.917969 44.082031 75.917969 Z M 44.082031 75.917969 "/>
<path style=" stroke:none;fill-rule:nonzero;fill:rgb(0%,0%,0%);fill-opacity:1;" d="M 54.921875 54.222656 C 54.59375 54.222656 54.273438 54.082031 54.046875 53.8125 L 43.210938 40.722656 C 43.042969 40.519531 42.949219 40.261719 42.949219 40 L 42.949219 18.246094 C 42.949219 17.621094 43.457031 17.113281 44.082031 17.113281 C 44.707031 17.113281 45.21875 17.621094 45.21875 18.246094 L 45.21875 39.59375 L 55.792969 52.367188 C 56.195312 52.847656 56.125 53.5625 55.648438 53.964844 C 55.433594 54.136719 55.175781 54.222656 54.921875 54.222656 Z M 54.921875 54.222656 "/>
</g>
</svg>