<svg xmlns="http://www.w3.org/2000/svg" xmlns:xlink="http://www.w3.org/1999/xlink" width="80" height="106" viewBox="0 0 45 70">
          <defs>
            <linearGradient x1="47.061%" y1="57.165%" x2="47.042%" y2="97.029%" id="b3"><stop stop-color="#FFF" stop-opacity="0" offset="0%"></stop><stop stop-color="#868686" stop-opacity="0" offset="24.733%"></stop><stop offset="100%"></stop></linearGradient><path d="M508.566 74.086c.16 1.252-.596 2.172-1.82 2.317l-.012.001.048-.095c.38-.746.996-1.978 1.642-3.356l.142 1.133zm-3.889 1.304c-1.865 3.78-3.37 5.804-6.185 8.315l-1.73 1.424a1.145 1.145 0 0 0-.385 1.146c-.027 3.412-.07 7.043-.105 7.96-.377.312-2.097 1.343-8.323 1.343-4.103 0-6.187-.468-7.213-.86-.227-.087-.726-.298-.971-.55v-8.25c0-.456-.219-.89-.584-1.162-.274-.204-1.475-1.144-2.778-2.867 3.303-.4 6.606-.798 9.91-1.195a1.145 1.145 0 0 0 2.179-.283c.55-3.396 2.047-5.705 4.45-6.861 1.997-.96 4.115-.927 5.252-.909.777.013 1.39.022 1.763-.618l.03-.05.023-.053c.026-.056 2.549-5.605 4.096-7.669l.023-.03c.6-.812 1.368-1.189 2.28-1.121a2.529 2.529 0 0 1 1.622.795c.898.97.74 1.99.436 2.948l-.018.057c-.807 2.561-2.864 6.705-3.71 8.368l-.062.122zm-32.802 3.064l-1.801-15.022-.053-.445a.035.035 0 0 1 .03-.038l36.605-4.387a.034.034 0 0 1 .038.03l.048.397.223 1.87a4.52 4.52 0 0 0-.386-.046c-1.7-.126-3.224.6-4.293 2.043l-.015.02c-1.384 1.846-3.33 5.907-4.061 7.472-1.24-.02-3.79-.053-6.261 1.136-2.806 1.35-4.644 3.815-5.478 7.339l-12.275 1.471c-1.359.163-2.157-.471-2.321-1.84zm-2.05-17.415a.035.035 0 0 1-.029-.03l-.433-3.613a.034.034 0 0 1 .03-.038l2.8-.336a.035.035 0 0 1 .036.048c-.046.107-.083.202-.13.293-.56 1.11-1.131 2.215-1.68 3.331-.127.258-.279.399-.594.345zm5.443-16.514a2.66 2.66 0 0 1 1.94.741c.085.08.163.166.236.254l-.313.102c-1.5.488-3.002.974-4.503 1.46.101-1.38 1.238-2.505 2.64-2.557zm7.767-8.89c.726 0 1.41.278 1.925.79.516.511.8 1.193.804 1.926l.045 4.443-5.424 1.767-.058-6.197a2.721 2.721 0 0 1 2.708-2.729zm5.827-4.556a2.701 2.701 0 0 1 1.95-.786c1.473.02 2.676 1.264 2.68 2.775l.038 7.223c-1.81.585-3.62 1.17-5.43 1.757l-.044-9.028a2.698 2.698 0 0 1 .806-1.94zm7.85 4.277a2.847 2.847 0 0 1 2.031-.813c1.488.02 2.748 1.298 2.753 2.785v.564a3.565 3.565 0 0 0-1.077.17c-.655.203-1.305.425-1.958.636l-2.522.815-.014-2.286a2.606 2.606 0 0 1 .786-1.87zm4.784 16.272l-5.48.657-.03-4.942c.998-.324 1.995-.649 2.993-.972l2.517-.814v6.07zm-5.867 6.274c.552-1.09 1.109-2.11 1.584-3.168.269-.597.618-.862 1.29-.915 1.5-.12 2.993-.339 4.532-.524a.035.035 0 0 1 .037.045c-.037.1-.06.179-.097.25-.585 1.158-1.166 2.317-1.767 3.465-.068.13-.242.268-.382.286-1.665.216-3.333.41-5 .608-.041.005-.083.003-.166.003a.035.035 0 0 1-.031-.05zm-7.702.923c.267-.53.513-1.022.761-1.512.373-.738.74-1.478 1.128-2.207.06-.113.202-.24.32-.256 1.704-.217 3.41-.417 5.115-.62.025-.002.052.005.098.014.023.005.035.03.025.05-.23.457-.447.894-.667 1.33-.396.783-.784 1.57-1.197 2.343-.07.132-.238.277-.377.295-1.665.217-3.333.41-5 .61-.048.005-.096.003-.175.003a.035.035 0 0 1-.031-.05zm-7.71.918c.66-1.296 1.293-2.549 1.937-3.795a.386.386 0 0 1 .257-.175c1.722-.215 3.445-.42 5.212-.631a.034.034 0 0 1 .037.046c-.038.101-.063.18-.1.253-.584 1.157-1.165 2.315-1.764 3.465-.064.122-.219.261-.347.278-1.69.218-3.383.415-5.076.616-.03.004-.06 0-.128-.007a.035.035 0 0 1-.028-.05zm-7.702.926l.628-1.239c.42-.826.833-1.656 1.265-2.476.06-.114.202-.242.32-.257 1.715-.218 3.432-.419 5.15-.622.022-.003.046.01.1.024-.036.092-.064.183-.107.267-.583 1.157-1.163 2.315-1.761 3.464-.064.123-.222.26-.352.276-1.69.217-3.381.415-5.073.616-.036.004-.073 0-.14-.003a.035.035 0 0 1-.03-.05zm13.333-10.03l.014 2.863-5.387.645-.016-1.758.167-.055 5.222-1.696zm2.36 2.581l-.034-3.338 4.711-1.532.686-.223.023 4.448-5.386.645zm-16.104 1.926c.791-.297 1.591-.56 2.392-.82l3.67-1.192.017 1.288-6.088.73.009-.006zm33.859-2.176a.035.035 0 0 1 .03.03l.435 3.627a.034.034 0 0 1-.03.038l-3.022.362a.034.034 0 0 1-.035-.048c.072-.177.144-.286.226-.445.468-.91.889-1.788 1.327-2.576.373-.67.472-1.058 1.069-.988zm3.75 9.367a4.79 4.79 0 0 0-.78-.677c-.64-5.317-1.202-9.974-1.234-10.194-.08-.559-.077-.564-.08-.564l-.406.042c-.266.028-.398.046-.825.097l-2.6.312v-6.539c.417-.135.834-.271 1.25-.408.519-.177 1.03-.352 1.17-.41.08-.034-.6-3.393-2.42-5.113v-1.558c-.007-2.76-2.256-5.037-5.013-5.075a5.17 5.17 0 0 0-2.989.908v-.1c-.01-2.752-2.226-5.02-4.943-5.057a4.974 4.974 0 0 0-3.594 1.448 4.976 4.976 0 0 0-1.486 3.58l.005 1.116a4.954 4.954 0 0 0-2.74-.803 5.018 5.018 0 0 0-4.994 5.036l.044 4.663a4.914 4.914 0 0 0-2.894-.807c-2.72.1-4.897 2.397-4.856 5.124v.47l-1.83.594c-1.823.593-2.894 2.6-2.36 4.425.199.684.395 1.37.64 2.037.083.222.236.617.39 1.018.135.432.249.814.262.924.198 1.72.408 3.44.614 5.16.671 5.602 1.369 11.202 2 16.809a3.774 3.774 0 0 0 3.753 3.376c1.437 2.187 2.924 3.548 3.675 4.159v8.14c0 .225.059.449.169.644l.006.012c1 1.847 4.37 2.745 10.302 2.745 5.9 0 9.506-.91 10.431-2.634.095-.174.13-.337.144-.45.03-.157.035-.337.043-.58.008-.238.016-.58.024-1.016.013-.73.028-1.739.042-3 .015-1.414.028-2.83.035-3.66l1.3-1.07.033-.03c2.51-2.236 4.106-4.18 5.709-7.065l1.336-.16c.35-.042.707-.119 1.035-.245 1.672-.643 2.543-2.197 2.314-4.107l-.506-4.227c.294-.727.553-1.422.747-2.037l.017-.053c.245-.77.99-3.117-.94-5.2zm-36.099 4.957l19.322-2.404a1.147 1.147 0 0 0-.283-2.275l-19.322 2.403a1.147 1.147 0 0 0 .283 2.276m.726 4.988l11.531-1.457a1.146 1.146 0 1 0-.287-2.275l-11.532 1.457a1.147 1.147 0 0 0 .288 2.275" id="a3"></path></defs><g transform="translate(-466 -28)" fill="none" fill-rule="evenodd"><use fill="#4D4D4D" xlink:href="#a3"></use><use fill="url(#b3)" xlink:href="#a3"></use></g></svg>