<svg xmlns="http://www.w3.org/2000/svg" xmlns:xlink="http://www.w3.org/1999/xlink" width="80" height="106" viewBox="0 0 61 64">
          <defs>
            <linearGradient x1="47.061%" y1="57.165%" x2="47.061%" y2="91.103%" id="b7"><stop stop-color="#FFF" stop-opacity="0" offset="0%"></stop><stop stop-color="#868686" stop-opacity="0" offset="0%"></stop><stop stop-color="#232323" stop-opacity=".738" offset="71.222%"></stop><stop offset="100%"></stop></linearGradient><path d="M1143.039 92.79c-4.876 5.29-7.003 5.78-7.536 5.803a.052.052 0 0 1-.022-.013l-6.521-6.01a2.822 2.822 0 0 0-2.293-.726c-1.14.153-3.556.306-6.648-.463a35.785 35.785 0 0 0 5.67-1.81c4.503-1.874 8.061-4.535 10.596-7.918l1.372.013h.055a5.883 5.883 0 0 0 4.792-2.491c2.654 2.488 5.193 4.887 5.868 5.559-.03.559-.497 2.81-5.333 8.057zm-27.783-3.208l-.226-.117-.119.227c-.72.266-1.35.737-1.823 1.375l-.962 1.295c-1.49 1.87-4.269 5.328-5.009 6.195-.57-.016-2.827-.427-8.239-5.036-3.983-3.392-5.777-6.065-6.177-7.562l4.247-5.406.036-.048c.199-.256.388-.503.569-.746a19.1 19.1 0 0 0 2.075 1.615c1.87 1.254 3.642 1.938 5.268 2.033 1.624.094 3.043-.399 4.216-1.463 1.144-1.039 1.77-2.415 1.761-3.875a5.478 5.478 0 0 0-.378-1.949 5.882 5.882 0 0 0 3.748-1.982 5.878 5.878 0 0 0 1.488-4.056 5.367 5.367 0 0 0-.747-2.612 6.007 6.007 0 0 0 3.035-1.873c.998-1.134 1.535-2.56 1.513-4.017a5.215 5.215 0 0 0-.858-2.83c1.298-.208 2.43-.857 3.216-1.853.8-1.013 1.198-2.118 1.194-3.302l4.178-5.32c.576-.731 1.337-.944 1.874-.993.904-.083 1.83.228 2.542.854 1.37 1.207 1.657 3.43.618 4.754l-6.889 8.677-.006.008a.607.607 0 0 1-.012.015l-.839 1.057-.033.044-.01.011h.001c-.578.792-.201 1.545.203 1.864.498.392 1.326.434 1.88-.262l.863-1.088 4.984-6.158a2.9 2.9 0 0 1 1.984-1.123 2.988 2.988 0 0 1 2.23.679c1.384 1.133 1.657 3.423.573 4.809a8212.726 8212.726 0 0 1-6.238 7.774l-.097.118c-1.836.016-3.515.243-5.722.77a1.331 1.331 0 0 0-.096.026c-2.65.615-5.338 2.552-5.426 5.525a5.659 5.659 0 0 0 1.598 4.116 5.897 5.897 0 0 0 4.17 1.798l7.477.07c-5.106 5.493-12.703 7.279-17.114 7.859-.177.023-.351.058-.52.103zm-18.066-10.159v.002a1.311 1.311 0 0 1 0-.002zm-1.111-9.532c.443-.554 1.103-.894 1.858-.96a3.27 3.27 0 0 1 2.436.812l6.659 5.902c.755.67 1.209 1.582 1.214 2.44.004.723-.299 1.367-.9 1.913-.64.58-1.392.838-2.298.785-2.564-.148-5.606-2.693-6.6-3.83-3.09-3.538-3.71-5.386-2.369-7.062zm3.29-8.843c.653-.741 1.548-1.127 2.412-1.127.64 0 1.264.211 1.759.647l8.676 7.636c.55.485.866 1.179.889 1.953a3.259 3.259 0 0 1-.835 2.244 3.259 3.259 0 0 1-2.12 1.113c-.771.077-1.5-.148-2.05-.633l-8.676-7.636c-.551-.485-.867-1.178-.889-1.953a3.26 3.26 0 0 1 .835-2.244zm4.165-8.2c.566-.642 1.316-1.045 2.114-1.135a2.89 2.89 0 0 1 .325-.018c.625 0 1.203.209 1.65.603l8.45 7.437c.525.461.82 1.13.831 1.885.013.803-.292 1.598-.857 2.24-.566.643-1.317 1.047-2.114 1.136-.75.085-1.452-.123-1.976-.585l-8.45-7.436c-.524-.462-.819-1.131-.83-1.886-.013-.802.292-1.598.857-2.24zm4.229-8.308c.559-.504 1.217-.751 2.008-.751.07 0 .142.002.214.005 2.701.146 6.028 2.904 7.131 4.14 1.125 1.261 2.49 2.895 3.058 4.35.466 1.193.362 2.086-.347 2.985-.527.668-1.255.864-1.773.911-.946.086-1.957-.257-2.707-.917l-7.06-6.21c-.854-.753-1.368-1.755-1.374-2.681-.005-.702.281-1.318.85-1.832zm13.174-2.743a3.005 3.005 0 0 1 2.107-1.157 2.955 2.955 0 0 1 2.244.749c1.3 1.15 1.498 3.18.44 4.526l-3.515 4.518c-.787-1.519-2.006-2.982-3.136-4.248a13.247 13.247 0 0 0-.89-.888l2.75-3.5zm19.965 34.05a3.057 3.057 0 0 1-.895 2.232 3.206 3.206 0 0 1-2.325.959l-12.243-.116a3.21 3.21 0 0 1-2.3-.991 3.05 3.05 0 0 1-.866-2.218c.053-1.818 2.275-2.792 3.442-3.053.041-.01.081-.02.12-.033 2.087-.495 3.576-.688 5.295-.685 1.518.002 3.087.165 4.663.482l1.704.344c2.95.966 3.381 2.05 3.405 3.08zm-1.69-11.068a2.621 2.621 0 0 1 2.017.668c1.3 1.15 1.498 3.18.444 4.522l-1.023 1.302c-.795-.457-1.65-.78-2.417-1.027-.05-.016-.1-.029-.152-.039l-1.769-.357a27.565 27.565 0 0 0-2.178-.35l2.79-3.415.016-.02c.58-.738 1.409-1.206 2.273-1.284zm11.641 18.957a1.46 1.46 0 0 0-.245-.444c-.167-.224-.496-.54-1.249-1.26-.575-.55-1.378-1.312-2.385-2.262-1.386-1.306-2.82-2.65-3.473-3.263.024-.237.034-.477.028-.72-.026-1.14-.367-2.053-.893-2.79l1.104-1.405a5.856 5.856 0 0 0 1.212-4.203 5.968 5.968 0 0 0-1.98-3.91 5.259 5.259 0 0 0-3.111-1.324c.54-1.054.764-2.29.62-3.525-.185-1.6-.975-3.076-2.165-4.05a5.626 5.626 0 0 0-3.24-1.28c.993-2.344.369-5.348-1.662-7.136-1.225-1.08-2.832-1.625-4.42-1.507a6.04 6.04 0 0 0 .017-1.326 5.969 5.969 0 0 0-1.98-3.91 5.558 5.558 0 0 0-4.222-1.398 5.684 5.684 0 0 0-3.939 2.15l-2.727 3.472c-1.709-1.211-3.889-2.36-6.016-2.475-1.6-.086-2.987.392-4.126 1.42-1.132 1.023-1.725 2.337-1.716 3.799.006.944.267 1.889.747 2.759a5.972 5.972 0 0 0-3.47 1.965c-.998 1.133-1.535 2.56-1.513 4.017.013.822.2 1.6.547 2.293a5.919 5.919 0 0 0-3.199 1.889 5.877 5.877 0 0 0-1.489 4.055 5.319 5.319 0 0 0 1.05 3.063 5.176 5.176 0 0 0-2.931 1.82c-1.294 1.616-1.584 3.452-.863 5.453.521 1.447 1.525 2.853 2.562 4.107a43.929 43.929 0 0 1-.859 1.137l-4.537 5.776c-.29.366-.394.847-.292 1.33.225 1.462 1.453 4.63 7.136 9.469 3.199 2.724 5.865 4.487 7.924 5.241 1.307.479 2.374.551 3.176.214.267-.112.436-.277.52-.37.365-.358 1.04-1.197 2.793-3.373 1.303-1.617 2.598-3.24 2.608-3.252.01-.011.018-.023.027-.035l.976-1.314c.03-.041.064-.081.098-.119 5.415 2.42 9.931 2.175 11.72 1.934a.2.2 0 0 1 .163.054l6.52 6.01a2.68 2.68 0 0 0 1.918.707c2.233-.1 5.38-2.336 9.354-6.647 4.582-4.972 6.617-8.718 5.882-10.836z" id="a7"></path></defs><g transform="translate(-1090 -38)" fill="none" fill-rule="evenodd"><use fill="#4D4D4D" xlink:href="#a7"></use><use fill="url(#b7)" xlink:href="#a7"></use></g></svg>