


          <svg xmlns="http://www.w3.org/2000/svg" xmlns:xlink="http://www.w3.org/1999/xlink" width="80" height="106" viewBox="0 0 56 70">
          <defs><linearGradient x1="47.061%" y1="57.165%" x2="47.042%" y2="97.029%" id="b6"></linearGradient><path d="M987.23 64.99a4.534 4.534 0 0 1-2.62 2.303l-1.038.346v-.001l.017-.053c.245-.772.99-3.12-.94-5.206a4.816 4.816 0 0 0-3.14-1.526c-1.7-.126-3.227.6-4.297 2.045l-.015.02c-1.385 1.848-3.335 5.914-4.066 7.481-1.242-.02-3.795-.053-6.269 1.137-1.794.863-3.193 2.183-4.187 3.943l-14.019 4.794c-2.372.806-4.971-.509-5.795-2.931l-4.322-12.712a4.573 4.573 0 0 1 2.853-5.794l37.95-12.825a4.538 4.538 0 0 1 3.488.227 4.54 4.54 0 0 1 2.307 2.63l4.32 12.632a4.538 4.538 0 0 1-.226 3.49zm-9.562 10.335l-.062.122c-1.869 3.787-3.376 5.813-6.197 8.33l-1.701 1.432a1.149 1.149 0 0 0-.409.87c-.01 1.46-.06 7.047-.108 8.236-.376.311-2.097 1.345-8.334 1.345-4.108 0-6.194-.468-7.22-.862-.229-.087-.728-.297-.973-.55v-8.26c0-.456-.22-.891-.586-1.164-.383-.285-1.583-1.248-2.877-2.995l10.327-3.532a16.71 16.71 0 0 0-.393 1.81 1.148 1.148 0 0 0 2.266.367c.55-3.4 2.05-5.711 4.456-6.869 1.999-.961 4.12-.928 5.258-.91.778.013 1.392.022 1.765-.619.02-.033.038-.068.054-.103.025-.056 2.55-5.61 4.1-7.678l.023-.03c.413-.559 1.145-1.207 2.283-1.123a2.532 2.532 0 0 1 1.624.797c.531.573.952 1.328.437 2.951l-.018.057c-.199.63-.473 1.354-.785 2.114l-.006.016c-.961 2.333-2.286 4.995-2.924 6.248zM945.51 47.368v-.016c-.025-1.493 1.164-2.752 2.65-2.807.72-.027 1.41.237 1.943.742.555.527.868 1.238.88 2.008l.104 5.165-5.562 1.88-.015-6.972zm10.427-11.723h.01c.724 0 1.404.28 1.917.79.516.512.802 1.194.805 1.921v.012l.054 4.05.044 7.446-5.387 1.82-.155-13.312a2.725 2.725 0 0 1 2.712-2.727zm5.834-4.562a2.703 2.703 0 0 1 1.952-.787c1.475.02 2.679 1.265 2.684 2.781l.105 14.17-5.403 1.826-.09-6.678-.055-9.369a2.702 2.702 0 0 1 .807-1.943zm7.859 4.282a2.855 2.855 0 0 1 2.034-.814c1.49.02 2.751 1.3 2.756 2.789v7.234l-5.489 1.855-.089-9.195a2.608 2.608 0 0 1 .788-1.869zm20 25.394l-4.321-12.633a6.82 6.82 0 0 0-3.466-3.948 6.815 6.815 0 0 0-5.128-.377v-6.465c-.008-2.763-2.26-5.042-5.019-5.08a5.17 5.17 0 0 0-2.993.908v-.1c-.01-2.755-2.23-5.027-4.949-5.064a4.984 4.984 0 0 0-3.598 1.451 4.983 4.983 0 0 0-1.488 3.586l.006 1.116a4.982 4.982 0 0 0-2.726-.804h-.019a5.023 5.023 0 0 0-5 5.035v.01l.055 4.672a4.925 4.925 0 0 0-2.908-.815c-2.723.1-4.903 2.4-4.862 5.13l.017 7.734-4.577 1.547a6.871 6.871 0 0 0-4.29 8.707l4.322 12.712c.984 2.893 3.675 4.725 6.54 4.725.563 0 1.132-.072 1.696-.22 1.365 1.988 2.738 3.239 3.445 3.814v8.15c0 .225.058.448.17.645l.006.012c1.001 1.85 4.375 2.749 10.313 2.749 5.907 0 9.518-.911 10.445-2.637.078-.145.116-.283.134-.39.05-.235.058-.637.077-1.634.013-.716.027-1.706.041-2.943.018-1.496.03-2.967.037-3.728l1.309-1.102.024-.021c3.044-2.712 4.745-4.993 6.74-9.037l.05-.097c.61-1.2 1.833-3.656 2.807-5.958l2.821-.94a6.819 6.819 0 0 0 3.948-3.465 6.82 6.82 0 0 0 .34-5.245zm-47.16 6.785a2.233 2.233 0 1 1 1.487 4.211 2.233 2.233 0 0 1-1.487-4.211zm40.108-14.886l2.112 6.214a1.148 1.148 0 1 1-2.173.739l-2.113-6.214a1.148 1.148 0 0 1 2.174-.74z" id="a6"></path></defs><g transform="translate(-934 -28)" fill="none" fill-rule="evenodd"><use fill="#4D4D4D" xlink:href="#a6"></use><use fill="url(#b)" xlink:href="#a6"></use></g></svg>